<?xml version="1.0" encoding="UTF-8"?>
<svg version="1.1" xmlns="http://www.w3.org/2000/svg" width="595" height="135">
<path d="M0 0 C196.35 0 392.7 0 595 0 C595 44.55 595 89.1 595 135 C398.65 135 202.3 135 0 135 C0 90.45 0 45.9 0 0 Z " fill="#FDFDFD" transform="translate(0,0)"/>
<path d="M0 0 C0.86633057 -0.00225586 1.73266113 -0.00451172 2.62524414 -0.00683594 C16.08444697 0.33529309 28.98284846 6.24944368 39.12890625 14.98828125 C50.03850855 26.56242786 54.77820625 39.71517812 54.78125 55.4140625 C54.79267029 57.06237564 54.79267029 57.06237564 54.80432129 58.74398804 C54.81506205 61.05163311 54.81800013 63.35932655 54.81347656 65.66699219 C54.81250067 69.18506808 54.85426915 72.70098608 54.8984375 76.21875 C54.90364281 78.47134966 54.90633272 80.72395683 54.90625 82.9765625 C54.92264526 84.01946442 54.93904053 85.06236633 54.95593262 86.13687134 C54.8929038 92.83013636 53.74930646 97.42562451 49.3125 102.5625 C43.91607332 106.64272505 38.84286086 106.70572653 32.265625 106.66015625 C31.49442322 106.6587413 30.72322144 106.65732635 29.9286499 106.65586853 C27.47322662 106.65028534 25.01789558 106.63773595 22.5625 106.625 C20.89453257 106.61998283 19.22656371 106.6154203 17.55859375 106.61132812 C13.47652713 106.60032141 9.39452919 106.58306836 5.3125 106.5625 C2.161475 72.14930803 2.161475 72.14930803 9.78515625 62.74609375 C13.72332356 58.88240715 17.84053319 57.52594781 23.17578125 56.3984375 C25.49194525 55.73850446 25.49194525 55.73850446 26.60546875 53.4765625 C26.83878906 52.84492187 27.07210937 52.21328125 27.3125 51.5625 C25.3634375 51.2840625 25.3634375 51.2840625 23.375 51 C17.55768817 49.66954225 13.3358552 46.95674566 9.3125 42.5625 C6.45558763 37.58061149 4.91361409 32.27308383 4.3125 26.5625 C2.34919668 26.49876191 2.34919668 26.49876191 0.3125 27.5625 C-0.63732636 29.99249741 -1.34739721 32.24199271 -2 34.75 C-3.91921619 41.31935733 -5.86966009 44.83030081 -11.6875 48.5625 C-14.39629335 49.91689668 -16.69683268 49.62751451 -19.6875 49.5625 C-19.6875 50.2225 -19.6875 50.8825 -19.6875 51.5625 C-29.5875 51.5625 -39.4875 51.5625 -49.6875 51.5625 C-49.6875 36.59445847 -44.54523507 25.36099977 -34.125 14.625 C-30.81948363 11.50220062 -27.67716142 8.78750348 -23.6875 6.5625 C-22.85605469 6.04558594 -22.02460937 5.52867188 -21.16796875 4.99609375 C-13.99947116 1.02995452 -8.11305732 0.00859965 0 0 Z " fill="#5145E2" transform="translate(70.6875,13.4375)"/>
<path d="M0 0 C4.67718855 -0.14952894 9.35295433 -0.25775951 14.03198242 -0.32958984 C15.61979438 -0.35956376 17.20744357 -0.40035909 18.79467773 -0.45263672 C34.6749369 -0.96216375 34.6749369 -0.96216375 41.35571289 4.29174805 C47.28587852 10.45260461 49.15737762 16.30416243 49.09765625 24.73046875 C49.0962413 25.48088943 49.09482635 26.23131012 49.09336853 27.00447083 C49.0877756 29.3988546 49.07522444 31.79314453 49.0625 34.1875 C49.05748408 35.81184761 49.05292134 37.43619668 49.04882812 39.06054688 C49.03780848 43.04040069 49.02054873 47.02018444 49 51 C44.01958936 51.09948577 39.03976748 51.17175686 34.05859375 51.21972656 C32.36708489 51.2397406 30.67564433 51.26696073 28.984375 51.30175781 C26.54149446 51.35073065 24.09953489 51.37307033 21.65625 51.390625 C20.53700134 51.42159271 20.53700134 51.42159271 19.3951416 51.45318604 C13.84156778 51.45551595 9.6479261 50.06834561 5 47 C-0.04732898 41.69383364 -0.14101393 37.21203433 -0.09765625 30.17578125 C-0.09553383 28.88367989 -0.09553383 28.88367989 -0.09336853 27.56547546 C-0.0877714 24.81444831 -0.07521946 22.06350256 -0.0625 19.3125 C-0.05748463 17.4472668 -0.05292179 15.58203233 -0.04882812 13.71679688 C-0.03780292 9.14449989 -0.02054027 4.57226375 0 0 Z " fill="#5044E0" transform="translate(21,69)"/>
<path d="M0 0 C29.87878788 0 29.87878788 0 36.125 6.0625 C37.69885714 11.34616326 38.16686957 17.06514623 36.09765625 22.26953125 C35 24.1875 35 24.1875 33 27 C33.48210937 27.32613281 33.96421875 27.65226562 34.4609375 27.98828125 C35.09257812 28.42527344 35.72421875 28.86226562 36.375 29.3125 C37.00148437 29.74175781 37.62796875 30.17101562 38.2734375 30.61328125 C40 32 40 32 42 35 C42.30078125 37.9609375 42.30078125 37.9609375 42.3125 41.375 C42.32925781 42.49648437 42.34601563 43.61796875 42.36328125 44.7734375 C41.82051333 49.59415038 40.03366098 52.09239523 36.4375 55.25 C32.43934712 58.12046873 29.59176116 58.13363437 24.8046875 58.09765625 C23.51030762 58.09515869 22.21592773 58.09266113 20.88232422 58.09008789 C19.22990723 58.08098389 17.57749023 58.07187988 15.875 58.0625 C10.63625 58.041875 5.3975 58.02125 0 58 C0 38.86 0 19.72 0 0 Z " fill="#0F0F0F" transform="translate(143,31)"/>
<path d="M0 0 C27 0 27 0 35 6 C37.33134056 10.66268112 37.86020664 13.88051778 37 19 C35.62234877 21.90410799 33.94707757 24.44793761 32 27 C32.9075 27.556875 33.815 28.11375 34.75 28.6875 C41.58552979 33.55124235 41.58552979 33.55124235 42.3828125 38.26171875 C42.67200851 44.55655187 41.768823 48.9164713 38 54 C27 58 27 58 0 58 C0 38.86 0 19.72 0 0 Z " fill="#0D0D0D" transform="translate(398,31)"/>
<path d="M0 0 C1.55654297 -0.00386719 1.55654297 -0.00386719 3.14453125 -0.0078125 C6.1875 0.125 6.1875 0.125 8.3894043 0.62939453 C11.93712314 1.25777506 15.41197384 1.23213573 19 1.1875 C19.69287109 1.18298828 20.38574219 1.17847656 21.09960938 1.17382812 C22.79561068 1.16213156 24.49156703 1.14419924 26.1875 1.125 C26.28702633 6.51435067 26.35927659 11.9031561 26.40722656 17.29321289 C26.42723374 19.12338593 26.45444851 20.95349592 26.48925781 22.78344727 C26.53826003 25.42740512 26.56057761 28.07051165 26.578125 30.71484375 C26.59877014 31.52146957 26.61941528 32.3280954 26.64068604 33.15916443 C26.64351057 40.45252662 24.40892607 46.20541145 20 52 C12.39997011 57.74224481 3.45497991 58.15977383 -5.8125 57.125 C-9.97609733 55.60742714 -12.83780347 52.32851934 -15.8125 49.125 C-13.9375 44.25 -13.9375 44.25 -12.8125 43.125 C-10.81640625 42.95703125 -10.81640625 42.95703125 -8.375 42.9375 C-7.57191406 42.92332031 -6.76882813 42.90914062 -5.94140625 42.89453125 C-3.8125 43.125 -3.8125 43.125 -1.8125 45.125 C3.13267384 45.78565191 7.71371297 45.43405137 12.1875 43.125 C12.1875 40.815 12.1875 38.505 12.1875 36.125 C10.7025 36.62 10.7025 36.62 9.1875 37.125 C6.56710286 37.29931213 3.99687916 37.40184435 1.375 37.4375 C0.32602539 37.48100586 0.32602539 37.48100586 -0.74414062 37.52539062 C-5.88905147 37.58795736 -8.79088398 36.58439295 -12.8125 33.125 C-16.56676242 28.89213128 -17.32862141 25.66308098 -17.21508789 20.19482422 C-17.16473389 19.36740723 -17.11437988 18.53999023 -17.0625 17.6875 C-17.01665771 16.83945801 -16.97081543 15.99141602 -16.92358398 15.11767578 C-16.47513572 10.09642154 -15.84231992 6.94701567 -11.875 3.5 C-7.71082684 0.76419114 -5.00074425 -0.01233229 0 0 Z " fill="#0F0F0F" transform="translate(527.8125,51.875)"/>
<path d="M0 0 C3.125 1.5 3.125 1.5 5 3 C5.33 2.67 5.66 2.34 6 2 C10.29 2 14.58 2 19 2 C19 13.88 19 25.76 19 38 C6 38 6 38 4 37 C2.989375 37.474375 1.97875 37.94875 0.9375 38.4375 C-3.41531782 40.35706562 -7.31293668 41.11522472 -12 40 C-16.52295657 37.35396457 -20.09150056 34.36274916 -23 30 C-23.38334444 27.38288159 -23.64691677 24.88013362 -23.8125 22.25 C-23.87630859 21.5590625 -23.94011719 20.868125 -24.00585938 20.15625 C-24.34476211 15.07748226 -23.55112802 11.53657114 -21 7 C-18.80859375 5.0390625 -18.80859375 5.0390625 -16.4375 3.625 C-15.65246094 3.14289062 -14.86742187 2.66078125 -14.05859375 2.1640625 C-9.38014145 -0.48143804 -5.33169001 -0.5022 0 0 Z " fill="#121212" transform="translate(290,51)"/>
<path d="M0 0 C4.62 0 9.24 0 14 0 C14.66 8.25 15.32 16.5 16 25 C16.66 24.67 17.32 24.34 18 24 C24.74262524 23.20541453 29.70146388 23.64253029 35.34375 27.515625 C38.31380496 30.17746671 39.88192765 31.95148364 40.34057617 36.02441406 C40.3170105 37.75256348 40.3170105 37.75256348 40.29296875 39.515625 C40.2784668 41.39121094 40.2784668 41.39121094 40.26367188 43.3046875 C40.23853516 44.60664062 40.21339844 45.90859375 40.1875 47.25 C40.16719727 49.22613281 40.16719727 49.22613281 40.14648438 51.2421875 C40.11112809 54.494966 40.05732152 57.74753443 40 61 C35.71 61 31.42 61 27 61 C26.95101563 59.44667969 26.90203125 57.89335938 26.8515625 56.29296875 C26.77653303 54.25779433 26.70098528 52.22263896 26.625 50.1875 C26.5940625 49.16333984 26.563125 48.13917969 26.53125 47.08398438 C26.49257813 46.10107422 26.45390625 45.11816406 26.4140625 44.10546875 C26.36693115 42.74651489 26.36693115 42.74651489 26.31884766 41.36010742 C26.13972081 38.73474608 26.13972081 38.73474608 24 36 C19.545 36.495 19.545 36.495 15 37 C14.04831317 39.85506049 13.8099054 41.90937282 13.68359375 44.88671875 C13.64169922 45.82451172 13.59980469 46.76230469 13.55664062 47.72851562 C13.51732422 48.70498047 13.47800781 49.68144531 13.4375 50.6875 C13.39431641 51.67556641 13.35113281 52.66363281 13.30664062 53.68164062 C13.20058458 56.12092972 13.09979026 58.56044654 13 61 C8.71 61 4.42 61 0 61 C0 40.87 0 20.74 0 0 Z " fill="#111111" transform="translate(351,28)"/>
<path d="M0 0 C8.49860056 6.5510046 8.49860056 6.5510046 9.515625 12.15234375 C9.74054997 18.52254021 9.19628422 24.30151166 5 29.3125 C-1.6330664 34.96793162 -7.74349735 36.75016098 -16.37109375 36.66015625 C-23.02811503 35.77980722 -28.86643961 31.44813563 -33 26.3125 C-35.27771651 21.54014161 -35.96756203 16.50993499 -35 11.3125 C-32.09913564 4.96363316 -27.93915823 0.83200117 -22 -2.6875 C-14.31539415 -5.11992564 -6.9231875 -3.89429297 0 0 Z " fill="#101010" transform="translate(498,54.6875)"/>
<path d="M0 0 C2.03985845 1.20103816 3.75439685 2.47911633 5.52734375 4.04296875 C6.35234375 4.74421875 7.17734375 5.44546875 8.02734375 6.16796875 C9.52734375 9.04296875 9.52734375 9.04296875 9.52734375 20.04296875 C0.94734375 20.04296875 -7.63265625 20.04296875 -16.47265625 20.04296875 C-13.9173049 24.76001052 -13.9173049 24.76001052 -11.47265625 27.04296875 C-9.56259319 27.36059335 -9.56259319 27.36059335 -7.47265625 27.29296875 C-6.77140625 27.298125 -6.07015625 27.30328125 -5.34765625 27.30859375 C-3.22908935 27.2000239 -3.22908935 27.2000239 -1.47265625 25.04296875 C1.46994005 25.3494892 3.87276683 25.71568029 6.52734375 27.04296875 C6.52734375 30.13044234 6.27185614 32.25358164 4.1015625 34.5546875 C-1.71761818 38.7594371 -7.50798671 38.90122123 -14.47265625 38.04296875 C-20.73418576 36.23675832 -24.53143794 31.00006195 -28.47265625 26.04296875 C-30.48538507 22.01751111 -30.06671377 17.40900313 -29.47265625 13.04296875 C-27.14227898 7.42770544 -23.21898337 2.80318158 -17.875 -0.140625 C-12.11095619 -2.09946265 -5.69845226 -2.20556209 0 0 Z " fill="#111111" transform="translate(252.47265625,52.95703125)"/>
<path d="M0 0 C4.29 0 8.58 0 13 0 C13 20.13 13 40.26 13 61 C8.71 61 4.42 61 0 61 C0 40.87 0 20.74 0 0 Z " fill="#181818" transform="translate(445,28)"/>
<path d="M0 0 C1.22589844 -0.01417969 2.45179688 -0.02835938 3.71484375 -0.04296875 C6.81893812 0.17073203 8.47612551 0.54751818 11.0625 2.1875 C10.5645163 5.92237777 10.18758244 7.99987635 8.0625 11.1875 C5.56640625 11.59375 5.56640625 11.59375 2.625 11.6875 C-1.34475817 11.74778347 -1.34475817 11.74778347 -4.76171875 13.50390625 C-6.74451323 16.34305715 -6.289086 18.84743302 -5.9375 22.1875 C-4.81066272 24.45212145 -4.81066272 24.45212145 -2.9375 26.1875 C-0.5708113 26.7365152 -0.5708113 26.7365152 2 26.6875 C5.42121922 26.90725715 6.77617444 26.99661629 9.6875 28.9375 C11.30433566 31.58323107 11.40120915 33.13911765 11.0625 36.1875 C5.08176382 38.84560497 -0.37545637 40.47907684 -6.9375 39.1875 C-12.71458908 36.20961903 -16.9832793 31.60738623 -20.1875 26 C-21.67792899 20.41089129 -21.90513682 15.20018459 -19.375 9.9375 C-13.36285131 3.15456302 -9.29676865 0.04877633 0 0 Z " fill="#101010" transform="translate(334.9375,51.8125)"/>
<path d="M0 0 C-0.55316586 3.96435532 -1.45620868 7.3162378 -3 11 C-4.26457031 11.03867188 -4.26457031 11.03867188 -5.5546875 11.078125 C-6.65039062 11.13484375 -7.74609375 11.1915625 -8.875 11.25 C-9.96554688 11.29640625 -11.05609375 11.3428125 -12.1796875 11.390625 C-15.07464693 11.67226009 -15.07464693 11.67226009 -16.15039062 13.74023438 C-17.07470429 16.19869624 -17.31329532 18.14567833 -17.4140625 20.765625 C-17.47207031 22.09980469 -17.47207031 22.09980469 -17.53125 23.4609375 C-17.57765625 24.84152344 -17.57765625 24.84152344 -17.625 26.25 C-17.68300781 27.65378906 -17.68300781 27.65378906 -17.7421875 29.0859375 C-17.83624344 31.39030796 -17.91920186 33.6951266 -18 36 C-22.29 36 -26.58 36 -31 36 C-31 24.12 -31 12.24 -31 0 C-26.71 0 -22.42 0 -18 0 C-18 0.99 -18 1.98 -18 3 C-16.4840625 2.01 -16.4840625 2.01 -14.9375 1 C-10.06180481 -1.79316142 -5.31345244 -1.70030478 0 0 Z " fill="#090909" transform="translate(222,53)"/>
<path d="M0 0 C0.66 0 1.32 0 2 0 C4.18464096 6.21211201 4.33778011 12.00894361 4.37109375 18.55859375 C4.38463646 20.21327415 4.38463646 20.21327415 4.39845276 21.90138245 C4.41291568 24.22695212 4.42183211 26.55256213 4.42553711 28.87817383 C4.43745038 32.42273714 4.4866923 35.96556819 4.53710938 39.50976562 C4.54657281 41.77603322 4.55380822 44.04231145 4.55859375 46.30859375 C4.57812607 47.36090683 4.59765839 48.41321991 4.61778259 49.49742126 C4.57680218 56.22571311 3.47132995 60.84050366 -1 66 C-6.39642668 70.08022505 -11.46963914 70.14322653 -18.046875 70.09765625 C-18.81807678 70.0962413 -19.58927856 70.09482635 -20.3838501 70.09336853 C-22.83927338 70.08778534 -25.29460442 70.07523595 -27.75 70.0625 C-29.41796743 70.05748283 -31.08593629 70.0529203 -32.75390625 70.04882812 C-36.83597287 70.03782141 -40.91797081 70.02056836 -45 70 C-45.68814455 62.57764091 -46.20296515 55.20502304 -46.25 47.75 C-46.270625 46.91726562 -46.29125 46.08453125 -46.3125 45.2265625 C-46.34853092 39.47963083 -45.43653463 35.2279044 -43 30 C-42.34 29.67 -41.68 29.34 -41 29 C-40.875 34.75 -40.875 34.75 -42 37 C-42.15520557 39.32273159 -42.25019167 41.64959313 -42.31640625 43.9765625 C-42.3475779 45.00443375 -42.3475779 45.00443375 -42.37937927 46.05307007 C-42.44480185 48.24361069 -42.50372554 50.43427189 -42.5625 52.625 C-42.60569218 54.1093875 -42.6493067 55.59376278 -42.69335938 57.078125 C-42.80047553 60.71862084 -42.90176362 64.35925251 -43 68 C-41.92915161 67.75793823 -41.92915161 67.75793823 -40.83666992 67.51098633 C-38.03637472 67.0065524 -35.45529723 66.85897812 -32.61328125 66.82421875 C-31.0809082 66.78844727 -31.0809082 66.78844727 -29.51757812 66.75195312 C-27.40058802 66.70938111 -25.28334196 66.67791752 -23.16601562 66.65820312 C-16.79186832 66.48636091 -11.84355899 65.55568707 -6.04760742 62.85083008 C-4 62 -4 62 -1 62 C-0.15478185 58.33468428 0.12185825 54.9580702 0.11352539 51.19995117 C0.11344986 50.05914597 0.11337433 48.91834076 0.11329651 47.7429657 C0.10813522 46.52196671 0.10297394 45.30096771 0.09765625 44.04296875 C0.0962413 42.78486893 0.09482635 41.5267691 0.09336853 40.23054504 C0.08872573 36.89821471 0.07975228 33.56595368 0.06866455 30.23364258 C0.05840503 26.82829383 0.05386121 23.4229379 0.04882812 20.01757812 C0.0378083 13.34503302 0.021077 6.67252051 0 0 Z " fill="#5C53C7" transform="translate(121,50)"/>
<path d="M0 0 C0.33 0 0.66 0 1 0 C1 1.65 1 3.3 1 5 C1.99 4.67 2.98 4.34 4 4 C4.66 8.95 5.32 13.9 6 19 C5.34 19 4.68 19 4 19 C3.67 19.99 3.34 20.98 3 22 C0.69 22.33 -1.62 22.66 -4 23 C-3.67 21.02 -3.34 19.04 -3 17 C-4.918125 16.690625 -4.918125 16.690625 -6.875 16.375 C-7.59429687 16.25898437 -8.31359375 16.14296875 -9.0546875 16.0234375 C-9.69664062 16.01570313 -10.33859375 16.00796875 -11 16 C-11.66 16.66 -12.32 17.32 -13 18 C-19.9633629 18.79907443 -19.9633629 18.79907443 -24 15.6875 C-26 13 -26 13 -26 10 C-17.42 10 -8.84 10 0 10 C0 6.7 0 3.4 0 0 Z " fill="#E7E7E7" transform="translate(262,63)"/>
<path d="M0 0 C0.66 0 1.32 0 2 0 C4.12264156 4.30771376 4.26296928 8.22046698 4.1953125 12.92578125 C4.1924826 13.67337204 4.18965271 14.42096283 4.18673706 15.19120789 C4.17559469 17.5651388 4.15050162 19.93868425 4.125 22.3125 C4.11496249 23.9277289 4.10583799 25.54296376 4.09765625 27.15820312 C4.07567489 31.10561594 4.04118657 35.05274274 4 39 C-0.98041064 39.09948577 -5.96023252 39.17175686 -10.94140625 39.21972656 C-12.63291511 39.2397406 -14.32435567 39.26696073 -16.015625 39.30175781 C-18.45850554 39.35073065 -20.90046511 39.37307033 -23.34375 39.390625 C-24.46299866 39.42159271 -24.46299866 39.42159271 -25.6048584 39.45318604 C-31.16807822 39.45551999 -35.33523604 38.05148956 -40 35 C-42.5 32.5 -42.5 32.5 -44 30 C-44 28.68 -44 27.36 -44 26 C-42.35 26.33 -40.7 26.66 -39 27 C-38.34 29.31 -37.68 31.62 -37 34 C-35.9958606 34.03758423 -35.9958606 34.03758423 -34.97143555 34.07592773 C-31.87666906 34.19347076 -28.78209248 34.31546486 -25.6875 34.4375 C-24.63498047 34.47681641 -23.58246094 34.51613281 -22.49804688 34.55664062 C-15.63947152 34.83098364 -8.82901897 35.30680652 -2 36 C-2 34.68 -2 33.36 -2 32 C-1.34 32 -0.68 32 0 32 C0 33.32 0 34.64 0 36 C0.66 36 1.32 36 2 36 C1.85980449 31.68729764 1.71181808 27.37489539 1.5625 23.0625 C1.52318359 21.85013672 1.48386719 20.63777344 1.44335938 19.38867188 C1.2138853 12.87513852 0.82995185 6.46525519 0 0 Z " fill="#564DC5" transform="translate(66,81)"/>
<path d="M0 0 C0.86633057 -0.00225586 1.73266113 -0.00451172 2.62524414 -0.00683594 C8.76141416 0.14914372 14.64441586 1.11028887 20.3125 3.5625 C20.8075 4.5525 20.8075 4.5525 21.3125 5.5625 C11.7425 4.9025 2.1725 4.2425 -7.6875 3.5625 C-8.3475 5.5425 -9.0075 7.5225 -9.6875 9.5625 C-12.9875 8.9025 -16.2875 8.2425 -19.6875 7.5625 C-20.0175 9.5425 -20.3475 11.5225 -20.6875 13.5625 C-23.1625 13.0675 -23.1625 13.0675 -25.6875 12.5625 C-26.0175 13.8825 -26.3475 15.2025 -26.6875 16.5625 C-28.6675 16.5625 -30.6475 16.5625 -32.6875 16.5625 C-33.3475 18.5425 -34.0075 20.5225 -34.6875 22.5625 C-35.6775 22.5625 -36.6675 22.5625 -37.6875 22.5625 C-37.6875 23.2225 -37.6875 23.8825 -37.6875 24.5625 C-38.6775 24.2325 -39.6675 23.9025 -40.6875 23.5625 C-37.11099187 16.40948375 -30.57742237 10.46245606 -23.6875 6.5625 C-22.43839844 5.78519531 -22.43839844 5.78519531 -21.1640625 4.9921875 C-13.99594625 1.03037518 -8.11108197 0.00859756 0 0 Z " fill="#665DD2" transform="translate(70.6875,13.4375)"/>
<path d="M0 0 C6.90725552 0.0830948 6.90725552 0.0830948 10.28515625 2.09375 C12.23723088 5.55424594 12.26846039 7.61106774 11.66015625 11.53125 C9.66015625 14.96875 9.66015625 14.96875 6.66015625 17.53125 C2.7865629 18.53608313 -0.33286223 18.11026437 -3.83984375 16.09375 C-6.01743265 12.37370229 -6.16297394 8.74330359 -5.33984375 4.53125 C-3.83498145 1.75304268 -3.12049396 0.70849279 0 0 Z " fill="#E6E6E6" transform="translate(529.33984375,62.46875)"/>
<path d="M0 0 C1.299375 -0.03867187 1.299375 -0.03867187 2.625 -0.078125 C5 0.25 5 0.25 6.79296875 1.51953125 C8.84978872 4.46830551 8.40746493 7.82453214 8 11.25 C6.99124788 14.06009519 6.66604583 14.91697708 4 16.25 C2.35857459 16.39640501 0.7101859 16.47096589 -0.9375 16.5 C-1.81277344 16.52578125 -2.68804687 16.5515625 -3.58984375 16.578125 C-6 16.25 -6 16.25 -7.80078125 14.98046875 C-10.19694787 11.52280812 -9.2004135 6.81322532 -8.6875 2.8125 C-8.460625 2.296875 -8.23375 1.78125 -8 1.25 C-5.09458095 0.28152698 -3.03362546 0.05417188 0 0 Z " fill="#F0F0F0" transform="translate(486,62.75)"/>
<path d="M0 0 C0.9590625 0.0103125 1.918125 0.020625 2.90625 0.03125 C4.34484375 0.01578125 4.34484375 0.01578125 5.8125 0 C8.40625 0.53125 8.40625 0.53125 10.2578125 2.2421875 C11.65111403 5.01931232 11.63841398 6.58830302 11.28125 9.65625 C11.19617188 10.52507812 11.11109375 11.39390625 11.0234375 12.2890625 C10.40625 14.53125 10.40625 14.53125 7.40625 16.53125 C4.01526864 17.06109084 0.79615894 17.07911407 -2.59375 16.53125 C-5.45363968 13.75547472 -5.55435851 11.90546913 -5.96875 7.96875 C-5.48617775 3.54517108 -4.61055955 0.94433147 0 0 Z " fill="#EEEEEE" transform="translate(284.59375,62.46875)"/>
<path d="M0 0 C10.18636587 -0.45610593 10.18636587 -0.45610593 14 3 C15.16115549 6.23464745 15.32230203 8.80443677 14 12 C9.43362969 15.04424687 5.43284541 14.12783166 0 14 C0 9.38 0 4.76 0 0 Z " fill="#DFDFDF" transform="translate(411,65)"/>
<path d="M0 0 C0.84933105 0.24447876 0.84933105 0.24447876 1.71582031 0.49389648 C4.07601117 1.01684172 6.13282157 1.11396742 8.546875 1.09765625 C9.39121094 1.09443359 10.23554687 1.09121094 11.10546875 1.08789062 C12.41451172 1.07532227 12.41451172 1.07532227 13.75 1.0625 C14.63816406 1.05798828 15.52632812 1.05347656 16.44140625 1.04882812 C18.62767329 1.037074 20.81380179 1.02064249 23 1 C23.0835687 3.33183634 23.07798589 5.66797027 23 8 C20.06472365 10.93527635 17.30083254 11.1967097 13.3125 11.3125 C9.29222973 11.29222973 9.29222973 11.29222973 7 9 C4.67724823 8.59952556 2.34260643 8.2602896 0 8 C-0.79953138 4.71303767 -1.09658936 3.28976808 0 0 Z " fill="#E4E4E4" transform="translate(517,87)"/>
<path d="M0 0 C1.5675 -0.061875 3.135 -0.12375 4.75 -0.1875 C6.07257813 -0.23970703 6.07257813 -0.23970703 7.421875 -0.29296875 C10.5246488 0.05961918 11.82587845 0.77589865 14 3 C14.49609375 4.9375 14.49609375 4.9375 14.4375 7 C14.43621094 7.680625 14.43492187 8.36125 14.43359375 9.0625 C13.85838081 11.63282089 13.16920403 12.50287841 11 14 C7.29631297 14.40199208 3.73655831 14.13187853 0 14 C0 9.38 0 4.76 0 0 Z " fill="#E9E9E9" transform="translate(157,65)"/>
<path d="M0 0 C0.33 0 0.66 0 1 0 C1.37429783 7.48595654 -0.00220694 13.8075257 -2 21 C-1.31373535 20.98428955 -0.6274707 20.9685791 0.07958984 20.95239258 C3.17797663 20.89017281 6.27623224 20.85105102 9.375 20.8125 C10.99535156 20.77479492 10.99535156 20.77479492 12.6484375 20.73632812 C13.6796875 20.72666016 14.7109375 20.71699219 15.7734375 20.70703125 C16.72653809 20.6913208 17.67963867 20.67561035 18.66162109 20.65942383 C19.43328613 20.77181396 20.20495117 20.8842041 21 21 C21.66 21.99 22.32 22.98 23 24 C13.43 24 3.86 24 -6 24 C-6 14.97810219 -6 14.97810219 -4.125 9.75 C-3.77695312 8.75484375 -3.42890625 7.7596875 -3.0703125 6.734375 C-2.15879497 4.40568058 -1.16749955 2.20878292 0 0 Z " fill="#5649C3" transform="translate(27,40)"/>
<path d="M0 0 C1.32 0 2.64 0 4 0 C4.696553 1.95513161 5.38199565 3.91422476 6.0625 5.875 C6.44535156 6.96554688 6.82820313 8.05609375 7.22265625 9.1796875 C8 12 8 12 7 14 C4.27734375 14.4140625 4.27734375 14.4140625 0.9375 14.625 C-0.16722656 14.69976562 -1.27195312 14.77453125 -2.41015625 14.8515625 C-3.26480469 14.90054688 -4.11945313 14.94953125 -5 15 C-4.35814255 12.68632778 -3.71172608 10.3741043 -3.0625 8.0625 C-2.78889648 7.0734668 -2.78889648 7.0734668 -2.50976562 6.06445312 C-1.11328125 1.11328125 -1.11328125 1.11328125 0 0 Z " fill="#E3E1F9" transform="translate(71,40)"/>
<path d="M0 0 C0.66 0 1.32 0 2 0 C4.12260463 4.30763881 4.26327038 8.2198317 4.1953125 12.92578125 C4.19329834 13.58912476 4.19128418 14.25246826 4.18920898 14.93591309 C4.17880824 17.39484654 4.15088592 19.8536808 4.125 22.3125 C4.08375 27.819375 4.0425 33.32625 4 39 C-7.88 39 -19.76 39 -32 39 C-32 38.67 -32 38.34 -32 38 C-20.45 38 -8.9 38 3 38 C2.505 34.535 2.505 34.535 2 31 C1.87768008 29.27522611 1.78198816 27.54826159 1.71875 25.8203125 C1.66267578 24.42619141 1.66267578 24.42619141 1.60546875 23.00390625 C1.55326172 21.57884766 1.55326172 21.57884766 1.5 20.125 C1.25041582 13.3677394 0.8270775 6.71311237 0 0 Z " fill="#6A61CF" transform="translate(66,81)"/>
<path d="M0 0 C6.0546875 -0.1953125 6.0546875 -0.1953125 8 0 C10 2 10 2 10.08203125 3.875 C9.99308594 4.57625 9.90414062 5.2775 9.8125 6 C9.73644531 6.70125 9.66039062 7.4025 9.58203125 8.125 C9 10 9 10 6 12 C4.02 12 2.04 12 0 12 C0 8.04 0 4.08 0 0 Z " fill="#E7E7E7" transform="translate(157,42)"/>
<path d="M0 0 C2.97 0.33 5.94 0.66 9 1 C9 3.97 9 6.94 9 10 C4.545 10.495 4.545 10.495 0 11 C0 7.37 0 3.74 0 0 Z " fill="#EBEBEB" transform="translate(412,42)"/>
<path d="M0 0 C3.625 0.375 3.625 0.375 7 1 C7 3.97 7 6.94 7 10 C4.36 10 1.72 10 -1 10 C-2.38125018 7.23749964 -2.19079306 5.05268901 -2 2 C-1.34 1.34 -0.68 0.68 0 0 Z " fill="#6F66C6" transform="translate(117,14)"/>
<path d="M0 0 C0.33 0 0.66 0 1 0 C1.34164605 6.94680303 0.80364415 13.53892707 -2 20 C-2.99 20.33 -3.98 20.66 -5 21 C-5.33 21.66 -5.66 22.32 -6 23 C-6.73625609 14.90118302 -3.76161888 7.09963204 0 0 Z " fill="#635ACE" transform="translate(27,40)"/>
<path d="M0 0 C0.33 0 0.66 0 1 0 C1.125 5.75 1.125 5.75 0 8 C-0.23029956 10.37123246 -0.41119942 12.74741943 -0.5625 15.125 C-0.64628906 16.40632813 -0.73007813 17.68765625 -0.81640625 19.0078125 C-0.90728516 20.48894531 -0.90728516 20.48894531 -1 22 C-1.66 22 -2.32 22 -3 22 C-3 24.31 -3 26.62 -3 29 C-3.33 29 -3.66 29 -4 29 C-4.08820927 25.83351345 -4.1407905 22.66734908 -4.1875 19.5 C-4.21263672 18.613125 -4.23777344 17.72625 -4.26367188 16.8125 C-4.32980062 10.81682732 -3.49022036 6.46970315 -1 1 C-0.67 0.67 -0.34 0.34 0 0 Z " fill="#6D65CC" transform="translate(79,79)"/>
<path d="M0 0 C0.66 0.33 1.32 0.66 2 1 C2.05423638 2.91635217 2.09289963 4.83314925 2.125 6.75 C2.14820313 7.81734375 2.17140625 8.8846875 2.1953125 9.984375 C2.00487687 12.92470106 1.52670104 14.52361878 0 17 C0 16.01 0 15.02 0 14 C-0.99 14 -1.98 14 -3 14 C-3.32374517 8.49633208 -3.53286034 4.56327794 0 0 Z " fill="#D7D7D7" transform="translate(510,60)"/>
<path d="M0 0 C2.31 0 4.62 0 7 0 C7.66 1.65 8.32 3.3 9 5 C5.37 5 1.74 5 -2 5 C-1.34 3.35 -0.68 1.7 0 0 Z " fill="#E2E2E2" transform="translate(240,60)"/>
<path d="M0 0 C1.32 0.33 2.64 0.66 4 1 C0.48417174 5.66283606 -2.03648545 8.72210402 -8 10 C-7.01 7.69 -6.02 5.38 -5 3 C-3.35 3 -1.7 3 0 3 C0 2.01 0 1.02 0 0 Z " fill="#6157D4" transform="translate(63,53)"/>
<path d="M0 0 C-0.33 2.31 -0.66 4.62 -1 7 C-2.65 6.67 -4.3 6.34 -6 6 C-6.33 6.99 -6.66 7.98 -7 9 C-7.24862931 6.01644824 -7.18991433 4.35134151 -5.75 1.6875 C-4 0 -4 0 0 0 Z " fill="#5B51D3" transform="translate(51,20)"/>
<path d="M0 0 C2.475 0.99 2.475 0.99 5 2 C4.67 3.32 4.34 4.64 4 6 C2.35 5.67 0.7 5.34 -1 5 C-0.67 3.35 -0.34 1.7 0 0 Z " fill="#5646DF" transform="translate(118,17)"/>
<path d="M0 0 C0.99 0.33 1.98 0.66 3 1 C3 3.31 3 5.62 3 8 C0.69 8 -1.62 8 -4 8 C-3.34 7.34 -2.68 6.68 -2 6 C-1.01 6 -0.02 6 1 6 C1 5.01 1 4.02 1 3 C0.34 2.34 -0.32 1.68 -1 1 C-0.67 0.67 -0.34 0.34 0 0 Z " fill="#5E52BF" transform="translate(121,16)"/>
</svg>
